PathFileType	4	(X/Y/Z)	C:/Users/opensim2020/Desktop/walking_exp_matlab/subject03_walking04_straight_04.trc	
DataRate	CameraRate	NumFrames	NumMarkers	Units	OrigDataRate	OrigDataStartFrame	OrigNumFrames	
100.00	100.00	4	51	mm	100.00	3172	293	
Frame#	Time	LFHD			RFHD			LBHD			RBHD			C7			T10			CLAV			STRN			RBAK			LSHO			LUPA			LELB			LFRM			LWRA			LWRB			LFIN			RSHO			RUPA			RELB			RFRM			RWRA			RWRB			RFIN			LASI			RASI			LPSI			RPSI			LTHI			LKNE			LTIB			LANK			LHEE			LTOE			RTHI			RKNE			RTIB			RANK			RHEE			RTOE			*39			*40			*41			*42			*43			*44			*45			*46			*47			*48			*49			*50			
		X1	Y1	Z1	X2	Y2	Z2	X3	Y3	Z3	X4	Y4	Z4	X5	Y5	Z5	X6	Y6	Z6	X7	Y7	Z7	X8	Y8	Z8	X9	Y9	Z9	X10	Y10	Z10	X11	Y11	Z11	X12	Y12	Z12	X13	Y13	Z13	X14	Y14	Z14	X15	Y15	Z15	X16	Y16	Z16	X17	Y17	Z17	X18	Y18	Z18	X19	Y19	Z19	X20	Y20	Z20	X21	Y21	Z21	X22	Y22	Z22	X23	Y23	Z23	X24	Y24	Z24	X25	Y25	Z25	X26	Y26	Z26	X27	Y27	Z27	X28	Y28	Z28	X29	Y29	Z29	X30	Y30	Z30	X31	Y31	Z31	X32	Y32	Z32	X33	Y33	Z33	X34	Y34	Z34	X35	Y35	Z35	X36	Y36	Z36	X37	Y37	Z37	X38	Y38	Z38	X39	Y39	Z39	X40	Y40	Z40	X41	Y41	Z41	X42	Y42	Z42	X43	Y43	Z43	X44	Y44	Z44	X45	Y45	Z45	X46	Y46	Z46	X47	Y47	Z47	X48	Y48	Z48	X49	Y49	Z49	X50	Y50	Z50	X51	Y51	Z51	

147	1.460	1681.48389	181.50792	1613.61292	1550.17908	206.24455	1615.22900	1698.76282	306.13165	1563.45032	1569.36548	326.69986	1565.91248	1642.33496	342.81723	1408.71191	1638.55469	380.17657	1095.41675	1630.32056	222.83002	1329.59937	1636.72253	181.01781	1164.94983	1551.88867	405.72098	1233.29248	1787.59558	250.94487	1369.77698	1864.16553	211.79610	1183.80261	1874.08777	164.07329	1071.41528	1854.72400	80.47838	975.46069	1804.35339	10.35368	889.42627	1856.95947	22.70951	877.20337	1835.79102	-37.08081	823.45258	1474.53638	280.34998	1352.06238	1405.45581	306.25504	1128.70361	1393.79443	304.83777	1015.36108	1391.67053	309.89920	878.38672	1426.94055	295.44934	778.99725	1382.37720	327.00677	779.42053	1393.60767	318.18152	704.94989	1758.13611	213.12303	933.54712	1517.84937	208.75890	931.38788	1701.85706	374.36819	954.21497	1552.93921	370.58850	954.32440	1780.38989	300.70154	633.94891	1735.77917	329.62360	459.49136	1730.56885	416.85803	282.16147	1680.66345	475.96948	79.88639	1642.16785	520.52167	50.60597	1655.40723	327.36285	33.84075	1466.27295	198.76407	638.53351	1508.13794	118.55473	477.72043	1502.46667	110.77890	291.53500	1544.94202	70.59389	77.81985	1600.34058	104.84271	39.84011	1560.59680	-73.40993	61.33124	1638.44348	272.28009	1667.85608																																	 
148	1.470	1680.74683	172.18430	1612.93652	1549.36853	196.96196	1614.22693	1698.23364	296.82275	1562.83643	1568.78149	317.38635	1564.95117	1641.65491	333.20929	1407.73718	1637.95703	371.00412	1094.66443	1630.08740	213.37549	1328.62073	1636.70972	171.85466	1163.95325	1551.59778	396.43579	1232.54590	1787.28821	241.83240	1368.96838	1863.80334	202.54678	1183.05676	1873.53088	154.58258	1070.82239	1853.61670	70.15031	975.97614	1802.64661	-1.06083	891.12103	1855.24780	11.11528	878.46356	1833.64453	-49.49106	825.73090	1474.15747	270.78854	1351.00928	1405.42712	298.21143	1127.83984	1393.84155	297.49780	1014.40515	1392.08374	303.23810	877.45776	1427.37708	289.04489	778.18524	1382.93677	321.15125	778.61182	1394.24536	312.55109	704.05884	1758.18579	204.40742	932.60016	1517.88269	199.30566	930.40460	1701.12231	365.47842	953.14606	1552.20166	361.18457	953.40491	1780.41724	293.94644	633.65570	1736.23706	324.18130	459.12747	1730.58020	414.07031	282.35983	1681.00427	475.00012	80.99767	1642.74646	520.24310	52.35489	1655.73047	326.90076	33.71461	1466.09717	190.97328	637.45679	1508.66943	111.69695	476.20581	1503.37109	100.17685	290.71838	1546.44995	54.17301	77.90958	1602.19299	87.08766	39.87841	1560.17395	-90.77080	64.00127	1637.87170	263.08231	1667.20728																																	 
149	1.480	1679.96045	162.85698	1612.40161	1548.58533	187.60181	1613.37061	1697.66809	287.57538	1562.26941	1568.10730	307.99500	1564.02979	1641.28064	323.71826	1407.27222	1637.48206	361.75909	1094.08948	1629.77002	203.87579	1327.73975	1636.56042	162.64867	1162.95715	1551.38989	387.02167	1231.98108	1786.97949	232.54428	1368.26135	1863.34436	193.36250	1182.38403	1872.83252	145.20345	1070.23193	1852.47021	59.98369	976.30713	1800.93921	-11.92130	892.47443	1853.49976	-0.00149	879.40485	1831.69568	-61.23421	827.68158	1473.75513	261.18375	1350.19568	1405.43616	289.81250	1127.05957	1393.95789	289.86978	1013.63159	1392.43774	296.38202	876.64941	1427.81226	282.60861	777.31757	1383.52478	314.93912	777.85382	1394.99805	306.60590	703.34521	1758.31152	195.49586	931.71539	1517.87976	189.58113	929.79352	1700.40967	356.42377	952.11035	1551.60742	351.63605	952.71082	1780.47485	286.95581	633.35522	1736.71313	318.44431	458.86188	1730.92944	410.57706	283.06586	1681.35718	474.30334	82.26048	1643.37598	519.83270	54.36336	1655.53015	327.01010	33.58308	1466.32300	182.75829	636.69653	1509.21997	105.14461	474.85818	1504.40991	90.61488	289.85385	1547.40405	40.28181	77.96004	1604.23669	71.31535	39.87288	1559.88965	-105.91094	65.99876	1636.89600	253.57811	1666.49048																																	 
150	1.490	1679.19177	153.42554	1611.86926	1547.79211	178.19199	1612.60767	1697.05603	278.20303	1561.77319	1567.44006	298.62216	1563.27625	1640.83252	314.04169	1406.77039	1637.08032	352.29129	1093.51758	1629.39893	194.34331	1326.93945	1636.41052	153.38763	1162.17285	1551.00269	377.49686	1231.50525	1786.62659	223.07338	1367.64380	1862.82971	184.30504	1181.71375	1872.09937	136.04123	1069.62170	1851.31262	50.18168	976.46198	1799.42627	-22.42327	893.59674	1851.92200	-10.65271	880.15576	1829.88269	-72.27491	829.27264	1473.34143	251.48938	1349.57947	1405.41479	281.23209	1126.44067	1394.18896	281.84799	1012.95935	1392.88306	289.04510	876.01166	1428.32520	275.53888	776.63086	1384.24341	308.11182	777.29913	1395.72290	300.18011	702.75458	1758.44739	186.49611	930.87140	1517.88184	179.59859	929.47778	1699.74988	347.10880	951.19092	1551.13281	341.89377	952.19757	1780.58630	279.66092	633.08002	1737.11890	312.35883	458.60632	1731.37744	406.91251	283.92267	1682.41663	473.76968	84.30993	1643.87805	519.24066	56.63737	1655.91541	326.56519	33.56312	1467.15454	174.31099	636.12714	1509.80103	98.33023	473.51190	1505.43555	82.12468	288.92969	1548.66626	27.91893	77.70937	1605.98730	57.91378	39.58033	1560.17578	-118.73164	67.46316	1635.86365	244.12630	1665.86243																																	 
